<svg width="164" height="164" viewBox="0 0 164 164" fill="none" xmlns="http://www.w3.org/2000/svg">
<path d="M142.377 81.5C142.377 115.207 115.05 142.534 81.3377 142.534C47.6257 142.534 20.2987 115.207 20.2987 81.5C20.2987 47.7926 47.6257 20.4655 81.3377 20.4655C115.05 20.4655 142.377 47.7926 142.377 81.5Z" stroke="white" stroke-width="40"/>
<path d="M81.3377 0.465515C103.716 0.465515 123.975 9.53528 138.64 24.1992L124.499 38.3419C135.567 49.409 142.377 64.6403 142.377 81.5H162.377C162.377 103.877 153.306 124.136 138.64 138.801L124.499 124.658C113.431 135.725 98.1987 142.534 81.3377 142.534V162.534C58.9598 162.534 38.7004 153.465 24.0353 138.801L38.1768 124.658C27.1088 113.591 20.2987 98.3597 20.2987 81.5H0.298706C0.298706 59.1225 9.36963 38.8636 24.0353 24.1992L38.1768 38.3419C49.2445 27.2752 64.4766 20.4655 81.3377 20.4655V0.465515Z" stroke="#F3603C" stroke-width="40" stroke-dasharray="502"/>
<path d="M81.3377 0.465515C103.716 0.465515 123.975 9.53528 138.64 24.1992L124.499 38.3419C135.567 49.409 142.377 64.6403 142.377 81.5H162.377C162.377 103.877 153.306 124.136 138.64 138.801L124.499 124.658C113.431 135.725 98.1987 142.534 81.3377 142.534V162.534C58.9598 162.534 38.7004 153.465 24.0353 138.801L38.1768 124.658C27.1088 113.591 20.2987 98.3597 20.2987 81.5H0.298706C0.298706 59.1225 9.36963 38.8636 24.0353 24.1992L38.1768 38.3419C49.2445 27.2752 64.4766 20.4655 81.3377 20.4655V0.465515Z" stroke="#242D52" stroke-width="40" stroke-dasharray="340"/>
</svg>
